<svg version="1.1" xmlns="http://www.w3.org/2000/svg" xmlns:xlink="http://www.w3.org/1999/xlink" width="64px" height="64px" viewBox="0,0,256,256"><g fill="none" fill-rule="nonzero" stroke="none" stroke-width="1" stroke-linecap="butt" stroke-linejoin="miter" stroke-miterlimit="10" stroke-dasharray="" stroke-dashoffset="0" font-family="none" font-weight="none" font-size="none" text-anchor="none" style="mix-blend-mode: normal"><g transform="scale(4,4)"><g><path d="M42,29v-7h4l-2,7z" fill="#f5732e"></path><path d="M43,30v-7h-4l1,7z" fill="#f8cf6d"></path><path d="M34,24v16c0,1.10457 -0.89543,2 -2,2h-16c-1.10457,0 -2,-0.89543 -2,-2v-16c0,-1.10457 0.89543,-2 2,-2h5c0.52635,1.01667 1.58544,1.64514 2.73,1.62c1.27019,-0.05272 2.45849,-0.64142 3.27,-1.62h5c1.10457,0 2,0.89543 2,2z" fill="#f8cf6d"></path><rect x="21" y="22" width="6" height="6" fill="#f5732e"></rect><path d="M26.92,37.08c-0.04095,1.04296 -0.87704,1.87905 -1.92,1.92l-11,0.43c-0.562,0.02187 -1.11055,-0.17532 -1.53,-0.55c-0.3,-0.25 0.69,0.62 -7.59,-6.76c-0.80261,-0.74788 -1.133,-1.87422 -0.86154,-2.93716c0.27145,-1.06293 1.10145,-1.89293 2.16439,-2.16439c1.06293,-0.27145 2.18927,0.05893 2.93716,0.86154l6,6.73l9.88,0.39c0.53058,0.0208 1.03111,0.25173 1.39127,0.64191c0.36016,0.39017 0.55038,0.90755 0.52873,1.43809z" fill="#2f79f0"></path><path d="M13,16c0.00603,2.67821 -1.76367,5.03611 -4.33696,5.77843c-2.57329,0.74233 -5.32695,-0.3107 -6.74832,-2.58062c-1.42138,-2.26992 -1.16623,-5.207 0.62528,-7.19781c3.64,-1.75 10.46,4 10.46,4z" fill="#88b8f9"></path><path d="M59.23,31c-0.2,0.2 -7.75,5.87 -7.85,6c-0.80944,0.60501 -1.92056,0.60501 -2.73,0l-8.76,-6.36c-0.84831,-0.63805 -1.05039,-1.82768 -0.46036,-2.71006c0.59003,-0.88239 1.76662,-1.15013 2.68036,-0.60994l7.55,4.68l5.39,-5.23c0.71415,-0.92365 1.8993,-1.34908 3.03784,-1.09047c1.13854,0.25861 2.02362,1.15428 2.26867,2.29581c0.24506,1.14153 -0.19443,2.32155 -1.12651,3.02466z" fill="#88b8f9"></path><circle cx="55.5" cy="15.5" r="6" fill="#88b8f9"></circle><path d="M64,62c0.06904,1.10457 -0.77043,2.05596 -1.875,2.125c-1.10457,0.06904 -2.05596,-0.77043 -2.125,-1.875l-2,-16.06c0,-0.07 0,-0.13 0,-0.19h-2c-0.26,1.57 0.72,-5.78 -2,16.25c-0.06904,1.10457 -1.02043,1.94404 -2.125,1.875c-1.10457,-0.06904 -1.94404,-1.02043 -1.875,-2.125c0,-19.48 -0.08,-14.33 0.34,-23.56c0.60399,-0.05396 1.17996,-0.27949 1.66,-0.65c8.13,-6.12 7.59,-5.71 8,-6c1.59886,-1.5602 1.6302,-4.12114 0.07,-5.72c-1.5602,-1.59886 -4.12114,-1.6302 -5.72,-0.07l-3.57,3.47c0.39509,-3.24784 3.22109,-5.64592 6.48994,-5.50721c3.26885,0.13871 5.88153,2.76757 6.00006,6.03721c0.94,20.71 0.73,10.49 0.73,32z" fill="#88b8f9"></path><path d="M14,62c0.06904,1.10457 -0.77043,2.05596 -1.875,2.125c-1.10457,0.06904 -2.05596,-0.77043 -2.125,-1.875l-2,-16.06c0,-0.07 0,-0.13 0,-0.19h-2c-0.26,1.57 0.72,-5.78 -2,16.25c-0.06242,0.53024 -0.33427,1.01351 -0.75499,1.34221c-0.42073,0.32869 -0.95542,0.47552 -1.48501,0.40779c-1.00993,-0.12205 -1.76735,-0.98275 -1.76,-2c0,-20.47 -0.18,-12.14 0.73,-32c0.18789,-3.32542 2.93928,-5.92574 6.27,-5.92574c3.33072,0 6.08211,2.60032 6.27,5.92574l0.05,1.09c-3.83,-4.3 -3.55,-4 -3.78,-4.2c-1.65685,-1.47184 -4.19316,-1.32185 -5.665,0.335c-1.47184,1.65685 -1.32185,4.19316 0.335,5.665l7.42,6.61c0.57014,0.55285 1.31768,0.88587 2.11,0.94c0.34,7.45 0.26,2.03 0.26,21.56z" fill="#2f79f0"></path><path d="M12.21,13c-0.96195,-1.66701 -2.66521,-2.77136 -4.57964,-2.96934c-1.91443,-0.19798 -3.80764,0.53446 -5.09036,1.96934h0.46c0.55228,0 1,0.44772 1,1c0,0.55228 -0.44772,1 -1,1h-1.65c-0.23336,0.6409 -0.35184,1.31794 -0.35,2h15.92c0.59647,0 1.08,-0.48353 1.08,-1.08c-0.0016,-0.52744 -0.38063,-0.97806 -0.9,-1.07z" fill="#2f79f0"></path><circle cx="32" cy="8" r="8" fill="#f5732e"></circle><path d="M32,7c-0.55228,0 -1,-0.44772 -1,-1c0,-0.55228 0.44772,-1 1,-1h2c0.55228,0 1,-0.44772 1,-1c0,-0.55228 -0.44772,-1 -1,-1h-1c0,-0.55228 -0.44772,-1 -1,-1c-0.55228,0 -1,0.44772 -1,1v0.18c-1.36497,0.49528 -2.17929,1.89703 -1.9334,3.32811c0.24589,1.43108 1.48139,2.48063 2.9334,2.49189c0.55228,0 1,0.44772 1,1c0,0.55228 -0.44772,1 -1,1h-2c-0.55228,0 -1,0.44772 -1,1c0,0.55228 0.44772,1 1,1h1c0,0.55228 0.44772,1 1,1c0.55228,0 1,-0.44772 1,-1v-0.18c1.36497,-0.49528 2.17929,-1.89703 1.9334,-3.32811c-0.24589,-1.43108 -1.48139,-2.48063 -2.9334,-2.49189z" fill="#fffeff"></path></g></g></g></svg>