<svg version="1.1" xmlns="http://www.w3.org/2000/svg" xmlns:xlink="http://www.w3.org/1999/xlink" width="50px" height="50px" viewBox="0,0,256,256"><g fill="#24b68e" fill-rule="nonzero" stroke="none" stroke-width="1" stroke-linecap="butt" stroke-linejoin="miter" stroke-miterlimit="10" stroke-dasharray="" stroke-dashoffset="0" font-family="none" font-weight="none" font-size="none" text-anchor="none" style="mix-blend-mode: normal"><g transform="scale(5.12,5.12)"><path d="M18.5,3c-1.38071,0 -2.5,1.11929 -2.5,2.5c0,1.38071 1.11929,2.5 2.5,2.5c1.38071,0 2.5,-1.11929 2.5,-2.5c0,-1.38071 -1.11929,-2.5 -2.5,-2.5zM31.5,3c-1.38071,0 -2.5,1.11929 -2.5,2.5c0,1.38071 1.11929,2.5 2.5,2.5c1.38071,0 2.5,-1.11929 2.5,-2.5c0,-1.38071 -1.11929,-2.5 -2.5,-2.5zM34.02539,11.97266c-0.34251,-0.00225 -0.66234,0.17093 -0.84766,0.45899c0,0 -3.24164,4.56836 -8.17773,4.56836c-4.9361,0 -8.17773,-4.56836 -8.17773,-4.56836c-0.18973,-0.28328 -0.51069,-0.45039 -0.85156,-0.44336c-0.37041,0.00801 -0.70605,0.22014 -0.87223,0.55128c-0.16618,0.33114 -0.13568,0.72702 0.07926,1.0288c0,0 3.68236,5.43164 9.82227,5.43164c6.1399,0 9.82227,-5.43164 9.82227,-5.43164c0.22431,-0.30256 0.25962,-0.70548 0.09135,-1.04244c-0.16827,-0.33696 -0.51159,-0.55081 -0.88822,-0.55326zM12.01563,14.7832c-0.12363,0.00026 -0.24615,0.02343 -0.36133,0.06836l-6,2.21094c-0.30092,0.09663 -0.53845,0.32982 -0.64062,0.62891l-4.86133,7.7793c-0.15893,0.25513 -0.19468,0.56821 -0.09736,0.8526c0.09732,0.28439 0.31739,0.50993 0.59931,0.61419l4.3457,1.60156v11.46094c0.00038,0.41864 0.26148,0.79275 0.6543,0.9375l19,7c0.22314,0.0822 0.46827,0.0822 0.69141,0l19,-7c0.39282,-0.14475 0.65391,-0.51886 0.6543,-0.9375v-11.46094l4.3457,-1.60156c0.28192,-0.10427 0.50199,-0.3298 0.59931,-0.61419c0.09732,-0.28439 0.06157,-0.59747 -0.09736,-0.8526l-4.86328,-7.7832c-0.1028,-0.29715 -0.33937,-0.52865 -0.63867,-0.625c-0.01292,-0.00483 -0.02595,-0.00938 -0.03906,-0.01367l-5.96094,-2.19727c-0.12509,-0.04822 -0.25859,-0.07081 -0.39258,-0.06641c-0.47925,0.01779 -0.8784,0.37327 -0.95136,0.84726c-0.07296,0.47399 0.20082,0.93306 0.65253,1.09414l3.45508,1.27344l-16.10937,5.93555l-16.10937,-5.93555l3.45508,-1.27344c0.45919,-0.16179 0.73515,-0.63074 0.65363,-1.11073c-0.08153,-0.47998 -0.49685,-0.83152 -0.98371,-0.83263zM6.41797,19.21875l17.08398,6.29297v0.00195l-3.91797,6.26758l-17.08594,-6.29297zM43.58203,19.21875l3.91992,6.26953l-17.08594,6.29297l-3.91602,-6.26758zM24,28.48438v17.08008l-17,-6.26172v-10.02734l12.6543,4.66211c0.44426,0.16352 0.94232,-0.00684 1.19336,-0.4082zM26,28.48438l3.15234,5.04492c0.25104,0.40136 0.7491,0.57173 1.19336,0.4082l12.6543,-4.66211v10.02734l-17,6.26172z"></path></g></g></svg>