<svg version="1.1" xmlns="http://www.w3.org/2000/svg" xmlns:xlink="http://www.w3.org/1999/xlink" width="48px" height="48px" viewBox="0,0,256,256"><defs><linearGradient x1="17.738" y1="7.296" x2="37.945" y2="62.815" gradientUnits="userSpaceOnUse" id="color-1"><stop offset="0.002" stop-color="#4081e3"></stop><stop offset="0.397" stop-color="#2668cb"></stop><stop offset="0.763" stop-color="#1358bf"></stop><stop offset="1" stop-color="#0c52bb"></stop></linearGradient><linearGradient x1="24" y1="3.576" x2="24" y2="9.972" gradientUnits="userSpaceOnUse" id="color-2"><stop offset="0" stop-color="#32bdef"></stop><stop offset="1" stop-color="#1ea2e4"></stop></linearGradient></defs><g fill="none" fill-rule="nonzero" stroke="none" stroke-width="1" stroke-linecap="butt" stroke-linejoin="miter" stroke-miterlimit="10" stroke-dasharray="" stroke-dashoffset="0" font-family="none" font-weight="none" font-size="none" text-anchor="none" style="mix-blend-mode: normal"><g transform="scale(5.33333,5.33333)"><rect x="12" y="13" width="24" height="23" fill="url(#color-1)"></rect><path d="M24,7l-18,7h35z" fill="#50e6ff"></path><path d="M1,42h46v-2c-0.0002,-0.5522 -0.4478,-0.9998 -1,-1h-44c-0.5522,0.0002 -0.9998,0.4478 -1,1z" fill="#42a4ed"></path><path d="M6,42h36v-2c-0.0002,-0.5522 -0.4478,-0.9998 -1,-1h-34c-0.5522,0.0002 -0.9998,0.4478 -1,1z" fill="#35c1f1"></path><path d="M3,39h42v-2c-0.0002,-0.5522 -0.4478,-0.9998 -1,-1h-40c-0.5522,0.0002 -0.9998,0.4478 -1,1z" fill="#35c1f1"></path><path d="M8,39h32v-2c-0.0002,-0.5522 -0.4478,-0.9998 -1,-1h-30c-0.5522,0.0002 -0.9998,0.4478 -1,1z" fill="#50e6ff"></path><path d="M41,15h-35c-0.48448,-0.00009 -0.89918,-0.34754 -0.98409,-0.82452c-0.08491,-0.47698 0.1844,-0.9462 0.63909,-1.11348l18,-7.0005c0.22304,-0.082 0.46796,-0.082 0.691,0l17,7.0005c0.45487,0.16734 0.72418,0.63684 0.639,1.11397c-0.08518,0.47713 -0.50033,0.82443 -0.985,0.82403zM10.607,12.9995h26.786l-13.393,-4.935z" fill="#35c1f1"></path><circle cx="24" cy="10.999" r="1" fill="url(#color-2)"></circle><rect x="34" y="15.5" width="4" height="18.5" fill="#35c1f1"></rect><rect x="9" y="15.5" width="4" height="18.5" fill="#35c1f1"></rect><path d="M38,34h-4c-0.5522,0.0002 -0.9998,0.4478 -1,1v1h6v-1c-0.0002,-0.5522 -0.4478,-0.9998 -1,-1z" fill="#35c1f1"></path><path d="M13,34h-4c-0.5522,0.0002 -0.9998,0.4478 -1,1v1h6v-1c-0.0002,-0.5522 -0.4478,-0.9998 -1,-1z" fill="#35c1f1"></path><path d="M39,15h-6v1c0.0002,0.5522 0.4478,0.9998 1,1h4c0.5522,-0.0002 0.9998,-0.4478 1,-1z" fill="#50e6ff"></path><path d="M14,15h-6v1c0.0002,0.5522 0.4478,0.9998 1,1h4c0.5522,-0.0002 0.9998,-0.4478 1,-1z" fill="#50e6ff"></path><path d="M23.76466,17c0.08051,-0.00001 0.15773,0.03198 0.21467,0.08891c0.05693,0.05693 0.08892,0.13415 0.08891,0.21466v1.39923c0.89062,-0.00333 1.77564,0.14092 2.61912,0.42687c0.2943,0.1406 0.46306,0.45617 0.4166,0.779v1.27126c0.00019,0.10409 -0.04125,0.20393 -0.11508,0.27729c-0.07384,0.07336 -0.17394,0.11416 -0.27803,0.1133c-0.06016,-0.00014 -0.11954,-0.01358 -0.17388,-0.03938c-0.96355,-0.45009 -2.01242,-0.68834 -3.07586,-0.69868c-0.47358,0 -1.98864,0.071 -1.98864,1.41885c0,2.58175 6.45066,1.728 6.45066,6.09758c0,1.67291 -1.0228,3.56813 -3.854,3.80445v1.54308c-0.00032,0.1675 -0.13602,0.30322 -0.30352,0.30358h-0.60715c-0.16752,-0.00032 -0.30325,-0.13605 -0.30357,-0.30357v-1.54588c-1.10577,-0.09301 -2.19121,-0.35216 -3.21973,-0.76874c-0.25552,-0.10685 -0.42221,-0.35633 -0.42312,-0.63329v-1.44687c-0.00042,-0.21654 0.1743,-0.39267 0.39083,-0.394c0.06097,0.00013 0.12103,0.01478 0.17521,0.04275c1.14242,0.58247 2.40193,0.89862 3.684,0.92472c1.50944,0 1.98861,-0.64637 1.98861,-1.39643c0,-2.3856 -6.45065,-1.487 -6.45065,-6.01631c0,-2.48462 1.96153,-3.55226 3.854,-3.7372v-1.42161c-0.00001,-0.16763 0.13586,-0.30353 0.30349,-0.30357h0.60713M23.76466,16h-0.60713c-0.7196,0.00081 -1.30274,0.58397 -1.30353,1.30357v0.57272c-2.23876,0.37103 -3.87401,2.31692 -3.854,4.58613c0,3.32061 2.79257,4.35463 4.64047,5.03887c0.72084,0.26691 1.81018,0.67027 1.81018,0.97744c0,0.10842 0,0.39643 -0.98861,0.39643c-1.12316,-0.02886 -2.22583,-0.30718 -3.22815,-0.8148c-0.43147,-0.21963 -0.9461,-0.19909 -1.35869,0.05421c-0.4126,0.2533 -0.66379,0.70293 -0.6632,1.18708v1.44687c0.0009,0.67749 0.40656,1.28887 1.03044,1.553c0.83945,0.3448 1.71614,0.59085 2.61241,0.73317v0.66177c0.0008,0.71962 0.58399,1.30277 1.30361,1.30354h0.60715c0.71962,-0.00079 1.30278,-0.58395 1.30357,-1.30357v-0.68143c2.26121,-0.3893 3.89888,-2.37207 3.854,-4.6661c0,-3.155 -2.70354,-4.20483 -4.49251,-4.89955c-0.96269,-0.37385 -1.95815,-0.76042 -1.95815,-1.198c0,-0.34618 0.53762,-0.41885 0.98864,-0.41885c0.91679,0.00975 1.82086,0.21574 2.65138,0.60412c0.43145,0.20407 0.93729,0.1734 1.34093,-0.08131c0.40364,-0.25471 0.64904,-0.6981 0.65053,-1.17537v-1.27126c0.04876,-0.73612 -0.37369,-1.42245 -1.05286,-1.71051c-0.63851,-0.23266 -1.30547,-0.3782 -1.98286,-0.43269v-0.46191c-0.00079,-0.71963 -0.58399,-1.30281 -1.30362,-1.30357z" fill="#000000" opacity="0.05"></path><path d="M23.76466,17c0.08051,-0.00001 0.15773,0.03198 0.21467,0.08891c0.05693,0.05693 0.08892,0.13415 0.08891,0.21466v1.39923c0.89062,-0.00333 1.77564,0.14092 2.61912,0.42687c0.2943,0.1406 0.46306,0.45617 0.4166,0.779v1.27126c0.00019,0.10409 -0.04125,0.20393 -0.11508,0.27729c-0.07384,0.07336 -0.17394,0.11416 -0.27803,0.1133c-0.06016,-0.00014 -0.11954,-0.01358 -0.17388,-0.03938c-0.96355,-0.45009 -2.01242,-0.68834 -3.07586,-0.69868c-0.47358,0 -1.98864,0.071 -1.98864,1.41885c0,2.58175 6.45066,1.728 6.45066,6.09758c0,1.67291 -1.0228,3.56813 -3.854,3.80445v1.54308c-0.00032,0.1675 -0.13602,0.30322 -0.30352,0.30358h-0.60715c-0.16752,-0.00032 -0.30325,-0.13605 -0.30357,-0.30357v-1.54588c-1.10577,-0.09301 -2.19121,-0.35216 -3.21973,-0.76874c-0.25552,-0.10685 -0.42221,-0.35633 -0.42312,-0.63329v-1.44687c-0.00042,-0.21654 0.1743,-0.39267 0.39083,-0.394c0.06097,0.00013 0.12103,0.01478 0.17521,0.04275c1.14242,0.58247 2.40193,0.89862 3.684,0.92472c1.50944,0 1.98861,-0.64637 1.98861,-1.39643c0,-2.3856 -6.45065,-1.487 -6.45065,-6.01631c0,-2.48462 1.96153,-3.55226 3.854,-3.7372v-1.42161c-0.00001,-0.16763 0.13586,-0.30353 0.30349,-0.30357h0.60713M23.76466,16.5h-0.60713c-0.44359,0.00051 -0.80306,0.35998 -0.80357,0.80357v0.984c-1.93896,0.32743 -3.85396,1.56543 -3.85396,4.17485c0,2.97257 2.49345,3.89584 4.31409,4.57c1.32939,0.49224 2.13656,0.83522 2.13656,1.44633c0,0.24517 0,0.89643 -1.48861,0.89643c-1.20229,-0.02982 -2.38286,-0.32693 -3.45604,-0.86978c-0.27646,-0.14022 -0.60593,-0.12667 -0.86993,0.03579c-0.264,0.16246 -0.42458,0.45047 -0.424,0.76046v1.44687c0.00108,0.47717 0.2872,0.90751 0.72679,1.09313c0.93472,0.37933 1.91507,0.63472 2.91606,0.75966v1.09512c0.00051,0.44359 0.35998,0.80306 0.80357,0.80357h0.60715c0.44359,-0.0005 0.80307,-0.35998 0.80357,-0.80357v-1.09843c2.20063,-0.18559 3.88338,-2.04084 3.854,-4.24909c0,-2.81275 -2.31411,-3.71139 -4.17351,-4.43346c-1.41184,-0.54827 -2.27715,-0.922 -2.27715,-1.66412c0,-0.6097 0.50086,-0.91885 1.48864,-0.91885c0.99011,0.0101 1.96657,0.23222 2.86363,0.6514c0.1207,0.05711 0.25258,0.08671 0.38611,0.08666c0.49232,0.00013 0.89185,-0.39827 0.89311,-0.89059v-1.27127c0.05467,-0.53117 -0.24327,-1.03595 -0.73473,-1.24476c-0.74053,-0.26112 -1.51631,-0.40868 -2.301,-0.43765v-0.9227c-0.00051,-0.44362 -0.36003,-0.80311 -0.80365,-0.80357z" fill="#000000" opacity="0.07"></path><path d="M27.92313,28.3489c0,-4.36956 -6.45066,-3.51583 -6.45066,-6.09758c0,-1.34786 1.51506,-1.41885 1.98863,-1.41885c1.06345,0.01034 2.11232,0.24859 3.07588,0.69868c0.12164,0.05984 0.26553,0.05282 0.38078,-0.01856c0.11525,-0.07139 0.18562,-0.19708 0.18622,-0.33265v-1.27126c0.04646,-0.32283 -0.1223,-0.6384 -0.4166,-0.779c-0.84348,-0.28595 -1.7285,-0.4302 -2.61912,-0.42687v-1.39924c0,-0.08052 -0.03198,-0.15773 -0.08892,-0.21467c-0.05694,-0.05693 -0.13416,-0.08891 -0.21467,-0.0889h-0.60714c-0.08051,0 -0.15773,0.03198 -0.21466,0.08891c-0.05693,0.05693 -0.08891,0.13415 -0.08891,0.21466v1.42165c-1.89242,0.18494 -3.85396,1.25258 -3.85396,3.7372c0,4.52928 6.45066,3.63071 6.45066,6.01632c0,0.75005 -0.47918,1.39642 -1.98863,1.39642c-1.28206,-0.02611 -2.54155,-0.34225 -3.68395,-0.92472c-0.12145,-0.06099 -0.26586,-0.05449 -0.38134,0.01716c-0.11548,0.07165 -0.18543,0.19816 -0.18471,0.33405v1.44687c0.00092,0.27696 0.16761,0.52645 0.42314,0.63329c1.02851,0.41658 2.11395,0.67574 3.21972,0.76874v1.54588c0.00032,0.16752 0.13605,0.30325 0.30357,0.30357h0.60715c0.16752,-0.00032 0.30325,-0.13605 0.30357,-0.30357v-1.54308c2.83115,-0.23635 3.85395,-2.13154 3.85395,-3.80445z" fill="#ffffff"></path></g></g></svg>