<svg version="1.1" xmlns="http://www.w3.org/2000/svg" xmlns:xlink="http://www.w3.org/1999/xlink" width="50px" height="50px" viewBox="0,0,256,256"><g fill="#24b68e" fill-rule="nonzero" stroke="none" stroke-width="1" stroke-linecap="butt" stroke-linejoin="miter" stroke-miterlimit="10" stroke-dasharray="" stroke-dashoffset="0" font-family="none" font-weight="none" font-size="none" text-anchor="none" style="mix-blend-mode: normal"><g transform="scale(5.12,5.12)"><path d="M13,3c-6.064,0.002 -10.999,4.95592 -11,11.04492c0.002,0.924 0.002,21.16316 0,21.91016c0.001,2.95 1.1457,5.72359 3.2207,7.80859c2.078,2.086 4.8403,3.23533 7.7793,3.23633c1.573,-0.001 3.08747,-0.34861 4.48047,-0.97461c1.427,0.638 2.95809,0.9668 4.49609,0.9668c2.83,0 5.66522,-1.07833 7.82422,-3.23633c0.123,-0.124 1.57427,-1.57817 3.57227,-3.57617c3.556,-3.557 8.83611,-8.83602 11.41211,-11.41602c4.281,-4.287 4.27814,-11.25997 -0.00586,-15.54297c-2.076,-2.077 -4.83744,-3.2207 -7.77344,-3.2207c-2.936,0 -5.69744,1.1447 -7.77344,3.2207l-5.23242,5.22852c0,-1.842 0.00095,-4.28634 0.00195,-4.40234v-0.00195c-0.002,-6.088 -4.93795,-11.04292 -11.00195,-11.04492zM13,5c4.962,0.002 8.999,4.05902 9,9.04102v6.40625l-3.55469,3.55273h-14.44531v-9.95703c0.001,-4.984 4.038,-9.04097 9,-9.04297zM22.97461,22.30078l12.72461,12.72461c-1.325,1.326 -2.61728,2.61823 -3.73828,3.74023c-1.999,2 -3.45517,3.45613 -3.57617,3.57813c-3.525,3.523 -9.24581,3.5373 -12.75781,0.0293c-3.507,-3.511 -3.4947,-9.23281 0.0293,-12.75781z"></path></g></g></svg>