<svg version="1.1" xmlns="http://www.w3.org/2000/svg" xmlns:xlink="http://www.w3.org/1999/xlink" width="100px" height="100px" viewBox="0,0,256,256"><g fill="none" fill-rule="nonzero" stroke="none" stroke-width="none" stroke-linecap="none" stroke-linejoin="none" stroke-miterlimit="10" stroke-dasharray="" stroke-dashoffset="0" font-family="none" font-weight="none" font-size="none" text-anchor="none" style="mix-blend-mode: normal"><g transform="scale(2.56,2.56)"><path d="M82.047,94.126c-3.179,-0.073 -6.167,-1.436 -8.351,-3.834l-16.943,-18.608c-4.408,2.152 -9.269,3.275 -14.272,3.275c-8.755,0 -16.949,-3.373 -23.073,-9.498c-6.15,-6.149 -9.538,-14.327 -9.538,-23.026c0,-8.699 3.388,-16.877 9.539,-23.027c6.149,-6.15 14.327,-9.538 23.026,-9.538c8.699,0 16.877,3.388 23.027,9.539c9.916,9.915 12.252,25.023 6.223,37.346l18.607,16.941c2.398,2.185 3.761,5.173 3.836,8.415c0.076,3.24 -1.146,6.288 -3.439,8.581c-2.216,2.217 -5.164,3.439 -8.3,3.439c-0.11499,-0.00001 -0.22799,-0.00101 -0.342,-0.005z" fill="#282626" stroke="none" stroke-width="1" stroke-linecap="butt" stroke-linejoin="miter" opacity="0.35"></path><path d="M80.047,92.126c-3.179,-0.073 -6.167,-1.436 -8.351,-3.834l-16.943,-18.608c-4.408,2.152 -9.269,3.275 -14.272,3.275c-8.755,0 -16.949,-3.373 -23.073,-9.498c-6.15,-6.149 -9.538,-14.327 -9.538,-23.026c0,-8.699 3.388,-16.877 9.539,-23.027c6.149,-6.15 14.327,-9.538 23.026,-9.538c8.699,0 16.877,3.388 23.027,9.539c9.916,9.915 12.252,25.023 6.223,37.346l18.607,16.941c2.398,2.185 3.761,5.173 3.836,8.415c0.076,3.24 -1.146,6.288 -3.439,8.581c-2.216,2.217 -5.164,3.439 -8.3,3.439c-0.11499,-0.00001 -0.22799,-0.00101 -0.342,-0.005z" fill="#f2f2f2" stroke="none" stroke-width="1" stroke-linecap="butt" stroke-linejoin="miter"></path><path d="M84.094,84.094v0c-2.118,2.118 -5.576,2.037 -7.592,-0.178l-28.647,-31.465l4.596,-4.596l31.465,28.647c2.215,2.016 2.296,5.474 0.178,7.592z" fill="#707cc0" stroke="none" stroke-width="1" stroke-linecap="butt" stroke-linejoin="miter"></path><circle cx="40.435" cy="40.435" r="24.566" fill="#70bfff" stroke="none" stroke-width="1" stroke-linecap="butt" stroke-linejoin="miter"></circle><path d="M80.388,87.131c-0.054,0 -0.108,0 -0.163,-0.002c-1.862,-0.043 -3.578,-0.825 -4.833,-2.203l-19.64,-21.572c-10.798,7.225 -25.532,5.852 -34.81,-3.428c-5.207,-5.206 -8.074,-12.128 -8.074,-19.491c0,-7.363 2.867,-14.285 8.074,-19.491c5.206,-5.207 12.128,-8.074 19.492,-8.074c7.364,0 14.286,2.867 19.492,8.074c9.278,9.277 10.651,24.011 3.427,34.809l21.572,19.641v0c1.377,1.255 2.16,2.971 2.204,4.833c0.044,1.862 -0.658,3.612 -1.975,4.929c-1.278,1.277 -2.965,1.975 -4.766,1.975zM55.97,59.864c0.409,0 0.815,0.167 1.11,0.49l20.532,22.552c0.696,0.765 1.65,1.2 2.684,1.224c1.054,0.042 2.006,-0.365 2.738,-1.097c0.732,-0.732 1.121,-1.703 1.097,-2.737c-0.024,-1.034 -0.459,-1.988 -1.224,-2.685l-22.553,-20.532c-0.57,-0.52 -0.654,-1.386 -0.194,-2.005c7.213,-9.693 6.201,-23.454 -2.355,-32.01c-4.64,-4.64 -10.809,-7.195 -17.371,-7.195c-6.562,0 -12.73,2.556 -17.371,7.195c-4.64,4.64 -7.195,10.809 -7.195,17.37c0,6.561 2.555,12.73 7.195,17.37c8.556,8.555 22.318,9.568 32.011,2.356c0.269,-0.198 0.583,-0.296 0.896,-0.296z" fill="#40396e" stroke="none" stroke-width="1" stroke-linecap="butt" stroke-linejoin="miter"></path><path d="M20.369,41.935c-0.829,0 -1.5,-0.672 -1.5,-1.5c0,-5.761 2.244,-11.177 6.317,-15.249c1.485,-1.485 3.163,-2.739 4.987,-3.729c0.729,-0.395 1.639,-0.124 2.033,0.604c0.395,0.728 0.125,1.639 -0.604,2.033c-1.569,0.852 -3.015,1.933 -4.295,3.213c-3.507,3.507 -5.438,8.169 -5.438,13.128c0,0.828 -0.671,1.5 -1.5,1.5z" fill="#d9eeff" stroke="none" stroke-width="1" stroke-linecap="butt" stroke-linejoin="miter"></path><circle cx="32.5" cy="37.5" r="2.5" fill="#40396e" stroke="none" stroke-width="1" stroke-linecap="butt" stroke-linejoin="miter"></circle><circle cx="48.5" cy="37.5" r="2.5" fill="#40396e" stroke="none" stroke-width="1" stroke-linecap="butt" stroke-linejoin="miter"></circle><path d="M32.15491,50c1.48719,-2.95911 4.6358,-5 8.27959,-5c3.63536,0 6.77784,2.03148 8.26925,4.97952" fill="none" stroke="#40396e" stroke-width="2" stroke-linecap="round" stroke-linejoin="round"></path></g></g></svg>