<svg version="1.1" xmlns="http://www.w3.org/2000/svg" xmlns:xlink="http://www.w3.org/1999/xlink" width="48px" height="48px" viewBox="0,0,256,256"><defs><linearGradient x1="31.064" y1="5.494" x2="51.021" y2="44.533" gradientUnits="userSpaceOnUse" id="color-1"><stop offset="0" stop-color="#30a8f7"></stop><stop offset="1" stop-color="#007ad9"></stop></linearGradient><linearGradient x1="35.949" y1="34.943" x2="40.706" y2="44.249" gradientUnits="userSpaceOnUse" id="color-2"><stop offset="0" stop-color="#30a8f7"></stop><stop offset="1" stop-color="#007ad9"></stop></linearGradient><linearGradient x1="39.949" y1="30.943" x2="44.706" y2="40.249" gradientUnits="userSpaceOnUse" id="color-3"><stop offset="0" stop-color="#30a8f7"></stop><stop offset="1" stop-color="#007ad9"></stop></linearGradient><linearGradient x1="39.926" y1="38.9" x2="44.073" y2="47.011" gradientUnits="userSpaceOnUse" id="color-4"><stop offset="0" stop-color="#30a8f7"></stop><stop offset="1" stop-color="#007ad9"></stop></linearGradient><linearGradient x1="31.949" y1="30.943" x2="36.706" y2="40.249" gradientUnits="userSpaceOnUse" id="color-5"><stop offset="0" stop-color="#30a8f7"></stop><stop offset="1" stop-color="#007ad9"></stop></linearGradient><linearGradient x1="31.949" y1="38.943" x2="36.706" y2="48.249" gradientUnits="userSpaceOnUse" id="color-6"><stop offset="0" stop-color="#30a8f7"></stop><stop offset="1" stop-color="#007ad9"></stop></linearGradient><linearGradient x1="11.949" y1="32.943" x2="16.706" y2="42.249" gradientUnits="userSpaceOnUse" id="color-7"><stop offset="0" stop-color="#30a8f7"></stop><stop offset="1" stop-color="#007ad9"></stop></linearGradient><linearGradient x1="11.949" y1="10.943" x2="16.706" y2="20.249" gradientUnits="userSpaceOnUse" id="color-8"><stop offset="0" stop-color="#30a8f7"></stop><stop offset="1" stop-color="#007ad9"></stop></linearGradient><linearGradient x1="33.949" y1="10.943" x2="38.706" y2="20.249" gradientUnits="userSpaceOnUse" id="color-9"><stop offset="0" stop-color="#30a8f7"></stop><stop offset="1" stop-color="#007ad9"></stop></linearGradient><linearGradient x1="39.949" y1="24.943" x2="44.706" y2="34.249" gradientUnits="userSpaceOnUse" id="color-10"><stop offset="0" stop-color="#30a8f7"></stop><stop offset="1" stop-color="#007ad9"></stop></linearGradient><linearGradient x1="15.076" y1="23.609" x2="34.14" y2="60.902" gradientUnits="userSpaceOnUse" id="color-11"><stop offset="0" stop-color="#30a8f7"></stop><stop offset="1" stop-color="#007ad9"></stop></linearGradient><linearGradient x1="9.143" y1="5.454" x2="29.099" y2="44.493" gradientUnits="userSpaceOnUse" id="color-12"><stop offset="0" stop-color="#30a8f7"></stop><stop offset="1" stop-color="#007ad9"></stop></linearGradient></defs><g fill="none" fill-rule="nonzero" stroke="none" stroke-width="1" stroke-linecap="butt" stroke-linejoin="miter" stroke-miterlimit="10" stroke-dasharray="" stroke-dashoffset="0" font-family="none" font-weight="none" font-size="none" text-anchor="none" style="mix-blend-mode: normal"><g transform="scale(5.33333,5.33333)"><path d="M41,21c1.105,0 2,-0.895 2,-2v-12c0,-1.105 -0.895,-2 -2,-2h-12c-1.105,0 -2,0.895 -2,2v3h-3v4h3v5c0,1.105 0.895,2 2,2h6v4h4v-4zM31,17v-8h8v8z" fill="url(#color-1)"></path><rect x="35" y="35" width="4" height="4" fill="url(#color-2)"></rect><rect x="39" y="31" width="4" height="4" fill="url(#color-3)"></rect><path d="M41,43c1.105,0 2,-0.895 2,-2v-2h-4v4z" fill="url(#color-4)"></path><rect x="31" y="31" width="4" height="4" fill="url(#color-5)"></rect><rect x="31" y="39" width="4" height="4" fill="url(#color-6)"></rect><rect x="11" y="33" width="4" height="4" fill="url(#color-7)"></rect><rect x="11" y="11" width="4" height="4" fill="url(#color-8)"></rect><rect x="33" y="11" width="4" height="4" fill="url(#color-9)"></rect><rect x="39" y="25" width="4" height="4" fill="url(#color-10)"></rect><path d="M27,25v-4h-6v4h-4v2h-4v-2h-4v2h-2c-1.105,0 -2,0.895 -2,2v12c0,1.105 0.895,2 2,2h12c1.105,0 2,-0.895 2,-2v-4h4v2h4v-10h2h4v-4h-4zM17,39h-8v-8h8zM25,33h-4v-4h2h2z" fill="url(#color-11)"></path><path d="M17,21h2c1.105,0 2,-0.895 2,-2v-1h3v-4h-3v-7c0,-1.105 -0.895,-2 -2,-2h-12c-1.105,0 -2,0.895 -2,2v12c0,1.105 0.895,2 2,2h6v4h4zM9,17v-8h8v8z" fill="url(#color-12)"></path></g></g></svg>