<svg version="1.1" xmlns="http://www.w3.org/2000/svg" xmlns:xlink="http://www.w3.org/1999/xlink" width="128px" height="128px" viewBox="0,0,256,256"><g fill="none" fill-rule="nonzero" stroke="none" stroke-width="1" stroke-linecap="butt" stroke-linejoin="miter" stroke-miterlimit="10" stroke-dasharray="" stroke-dashoffset="0" font-family="none" font-weight="none" font-size="none" text-anchor="none" style="mix-blend-mode: normal"><g transform="scale(2,2)"><path d="M99,0.8c-15.2,0 -27.5,12.2 -28,27.9c-0.4,14.5 13.5,33.6 21.8,43.6c1.5,1.8 3.8,2.9 6.2,2.9c2.4,0 4.6,-1.1 6.2,-2.9c8.3,-10.1 22.3,-29.1 21.8,-43.6c-0.5,-15.7 -12.8,-27.9 -28,-27.9z" fill="#444b54"></path><path d="M99,18.8c-5.52285,0 -10,4.47715 -10,10c0,5.52285 4.47715,10 10,10c5.52285,0 10,-4.47715 10,-10c0,-5.52285 -4.47715,-10 -10,-10z" fill="#ffffff"></path><path d="M19,79.9c-9.8,0 -17.7,7.9 -18,17.9c-0.3,9.1 8.3,20.8 13.4,27c1.1,1.4 2.8,2.2 4.6,2.2c1.8,0 3.5,-0.8 4.6,-2.2c5.1,-6.2 13.7,-17.9 13.4,-27c-0.3,-10 -8.2,-17.9 -18,-17.9z" fill="#444b54"></path><path d="M19,91.9c-3.31371,0 -6,2.68629 -6,6c0,3.31371 2.68629,6 6,6c3.31371,0 6,-2.68629 6,-6c0,-3.31371 -2.68629,-6 -6,-6z" fill="#ffffff"></path><g fill="#71c2ff"><path d="M76.8,127h-40.8c-1.7,0 -3,-1.3 -3,-3c0,-1.7 1.3,-3 3,-3h40.8c1.2,0 2.2,-0.6 2.7,-1.7c0.5,-1.1 0.4,-2.2 -0.3,-3.2l-25.1,-32.6c-2.1,-2.7 -2.5,-6.4 -0.9,-9.5c1.5,-3.1 4.6,-5 8.1,-5h17.7c1.7,0 3,1.3 3,3c0,1.7 -1.3,3 -3,3h-17.8c-1.2,0 -2.2,0.6 -2.7,1.7c-0.5,1.1 -0.4,2.2 0.3,3.2l25.1,32.7c2.1,2.7 2.5,6.4 0.9,9.5c-1.4,3 -4.5,4.9 -8,4.9z"></path></g></g></g></svg>